<?xml version="1.0" standalone="no"?>
<!DOCTYPE svg PUBLIC "-//W3C//DTD SVG 20010904//EN"
 "http://www.w3.org/TR/2001/REC-SVG-20010904/DTD/svg10.dtd">
<svg version="1.0" xmlns="http://www.w3.org/2000/svg"
 width="800.000000pt" height="800.000000pt" viewBox="0 0 1252.000000 1252.000000"
 preserveAspectRatio="xMidYMid meet">

<g transform="translate(0.000000,1252.000000) scale(0.100000,-0.100000)"
fill="#000000" stroke="none">
<path d="M9214 10586 c-46 -21 -57 -23 -125 -14 -143 17 -260 20 -305 8 -24
-7 -44 -17 -44 -21 0 -13 -24 -11 -56 6 -38 20 -104 19 -133 -1 -17 -12 -36
-15 -71 -11 -37 4 -50 2 -54 -9 -8 -21 -27 -17 -61 12 -30 26 -31 26 -140 19
-60 -4 -115 -11 -122 -16 -6 -6 -49 -10 -95 -10 -45 0 -105 1 -133 1 -27 0
-60 5 -73 12 -18 9 -27 9 -42 0 -24 -15 -67 -16 -75 -2 -7 12 -212 14 -219 2
-3 -5 -94 -9 -203 -10 -109 0 -213 -5 -230 -11 -25 -7 -41 -6 -70 8 -35 17
-56 17 -238 9 -110 -5 -333 -11 -495 -13 -162 -2 -346 -7 -408 -10 -68 -4
-118 -2 -125 3 -21 17 -937 18 -968 1 -11 -5 -154 -9 -346 -8 -191 0 -347 -3
-373 -9 -27 -6 -114 -8 -215 -5 -93 3 -192 5 -220 5 -27 0 -68 0 -90 0 -59 1
-473 -1 -525 -1 -25 -1 -117 0 -205 1 -88 2 -171 -1 -185 -5 -13 -4 -74 -7
-135 -6 -60 1 -193 1 -295 -1 -178 -2 -186 -3 -217 -26 -22 -17 -34 -36 -39
-62 -3 -20 -17 -66 -31 -101 -19 -49 -23 -72 -17 -100 4 -20 8 -148 9 -286 0
-137 6 -356 13 -485 16 -311 22 -1250 9 -1310 -7 -31 -7 -82 1 -170 7 -69 12
-228 12 -355 1 -213 -2 -1216 -3 -1525 -1 -74 0 -164 0 -200 5 -278 4 -538 -1
-660 -5 -92 -3 -187 5 -260 12 -110 12 -150 4 -360 -4 -115 -17 -559 -17 -615
-1 -22 3 -256 7 -520 5 -264 8 -581 6 -705 -1 -124 -2 -238 -2 -255 0 -16 2
-127 4 -245 5 -220 12 -309 25 -322 4 -4 39 -14 77 -21 67 -13 73 -16 145 -88
142 -141 160 -148 360 -139 79 4 143 3 154 -2 31 -16 196 -5 238 16 34 16 45
17 130 6 51 -7 99 -17 106 -23 7 -5 28 -7 47 -4 20 3 86 1 148 -4 62 -5 207
-12 322 -14 116 -3 221 -8 235 -11 44 -12 769 3 1103 22 61 3 103 2 111 -5 24
-20 94 -25 120 -7 28 18 107 21 152 6 16 -5 121 -12 234 -15 282 -9 339 -8
460 4 140 15 412 22 425 11 5 -4 136 -7 290 -4 329 4 287 4 640 -2 179 -2 288
-8 302 -15 14 -8 43 -9 85 -4 35 4 293 8 573 10 304 2 548 7 603 14 62 8 105
8 130 2 76 -20 227 -24 292 -7 81 21 116 20 141 -3 34 -32 162 -42 210 -17 40
21 79 29 144 31 33 1 70 7 82 13 28 15 155 16 170 1 8 -8 21 -8 48 1 24 8 56
10 89 5 102 -14 197 -6 250 22 53 27 63 35 89 73 12 17 15 35 11 57 -4 20 0
44 10 64 16 33 23 159 9 173 -4 4 -8 55 -9 114 -1 61 -9 137 -18 177 -19 79
-17 106 19 181 14 29 25 57 25 63 0 6 7 31 15 56 24 69 26 271 5 375 -37 176
-45 429 -19 600 15 105 16 228 1 340 -7 53 -9 125 -4 190 6 94 7 259 2 395 -1
28 1 102 5 165 7 129 8 169 6 390 -1 112 -6 170 -17 207 -14 44 -15 59 -4 95
19 66 30 266 24 433 -12 361 -13 703 -1 751 9 36 10 85 4 184 -14 229 -10 572
10 685 22 130 20 175 -6 226 -17 33 -21 51 -16 78 4 20 9 164 12 321 2 157 4
299 5 315 0 17 -3 42 -7 58 -5 17 -3 33 5 42 16 20 17 446 1 553 -8 52 -8 135
0 292 8 164 7 224 -1 240 -9 17 -8 37 5 91 16 64 16 71 1 88 -19 21 -20 61 -2
164 8 43 12 105 9 138 -4 38 1 95 11 152 l18 92 -26 45 c-14 25 -37 59 -52 75
-14 17 -31 42 -36 58 -6 16 -17 27 -28 27 -11 0 -21 4 -24 9 -3 4 -16 6 -29 4
-13 -3 -30 2 -38 9 -24 24 -46 27 -69 11 -17 -12 -27 -13 -46 -4 -14 6 -42 11
-64 11 -21 0 -42 5 -45 10 -17 27 -105 -13 -105 -49 0 -9 -7 -41 -15 -69 -16
-51 -16 -52 -56 -52 -31 0 -48 7 -72 30 -38 35 -183 110 -218 112 -13 1 -30 6
-38 12 -16 12 -132 9 -145 -4 -13 -13 -186 -13 -186 -1 0 5 -21 12 -47 15 -27
2 -64 7 -83 10 -25 4 -50 -1 -86 -18z m879 -318 c18 -12 34 -26 35 -30 2 -4 9
-8 15 -8 16 0 54 -59 61 -95 3 -16 8 -52 11 -78 2 -27 11 -69 19 -95 11 -34
14 -76 11 -152 -4 -117 -21 -301 -34 -370 -5 -25 -7 -195 -6 -377 1 -183 -2
-333 -7 -333 -14 0 -9 -112 7 -165 9 -27 15 -79 15 -115 -1 -36 3 -92 9 -125
9 -49 8 -70 -6 -115 -18 -59 -19 -83 -12 -310 4 -139 5 -148 36 -213 18 -38
42 -80 53 -94 20 -25 20 -25 0 -53 -11 -16 -20 -32 -20 -38 0 -5 -7 -15 -15
-22 -20 -16 -19 -45 1 -65 24 -24 12 -99 -27 -176 -29 -59 -31 -68 -25 -131 3
-38 13 -87 21 -111 18 -50 19 -110 4 -139 -7 -12 -13 -100 -15 -217 -6 -368
-22 -608 -41 -637 -12 -18 -12 -28 1 -65 8 -24 17 -84 20 -134 3 -49 10 -117
15 -150 9 -51 7 -66 -9 -103 -11 -24 -18 -47 -16 -51 6 -9 21 -563 20 -706 -1
-66 -7 -149 -13 -185 -9 -50 -9 -80 0 -135 13 -76 13 -118 6 -480 -10 -494
-16 -613 -34 -673 -12 -40 -16 -85 -14 -150 2 -76 -1 -97 -14 -112 -14 -15
-15 -22 -4 -42 9 -16 13 -81 14 -211 1 -128 5 -191 13 -199 7 -7 12 -23 12
-35 0 -42 31 -177 46 -200 8 -12 14 -31 14 -42 0 -23 -35 -85 -67 -121 -13
-14 -26 -33 -29 -42 -3 -10 -10 -18 -15 -18 -5 0 -9 -8 -9 -18 0 -21 -39 -58
-78 -74 -15 -6 -42 -17 -61 -26 -44 -19 -106 -10 -131 18 -15 18 -26 21 -50
17 -25 -6 -32 -2 -44 21 -31 59 -102 88 -179 74 -26 -5 -93 -10 -149 -11 -56
-1 -107 -6 -113 -10 -20 -15 -93 -31 -139 -31 -26 0 -75 -9 -109 -19 -46 -14
-111 -21 -252 -27 -209 -9 -245 -9 -544 1 -152 5 -215 4 -245 -5 -26 -8 -96
-12 -188 -12 -84 1 -150 -3 -153 -8 -8 -14 -49 -12 -62 1 -9 9 -38 8 -113 -1
-81 -11 -122 -11 -210 -1 -60 7 -155 13 -212 13 -65 0 -106 5 -110 12 -5 8
-102 12 -320 13 -172 1 -346 5 -386 8 -52 5 -77 3 -88 -6 -10 -8 -54 -13 -122
-14 -164 -3 -461 -14 -517 -19 -27 -3 -84 0 -125 5 -41 6 -169 14 -285 19
-115 4 -232 13 -260 20 -27 6 -70 11 -95 10 -25 -1 -117 -3 -205 -6 -199 -5
-330 -12 -465 -24 -339 -30 -526 -33 -555 -10 -5 5 -59 8 -118 7 -60 -1 -111
3 -115 8 -17 24 -52 33 -113 29 -162 -12 -551 -16 -562 -5 -6 6 -21 11 -33 11
-13 0 -26 5 -30 11 -3 6 -17 8 -30 5 -16 -4 -30 1 -48 19 -38 38 -41 67 -16
153 23 76 23 76 5 150 -11 41 -24 76 -31 79 -12 5 -40 -14 -78 -54 l-22 -23
-1 138 c-2 137 -12 232 -32 307 -13 49 -14 160 -2 183 13 25 16 146 7 287 -7
104 -12 128 -38 180 -37 74 -48 154 -24 177 9 9 21 29 27 45 11 25 22 258 18
353 -3 75 -1 177 6 219 5 27 2 65 -6 99 -10 43 -10 66 -1 112 12 56 11 63 -19
147 -35 96 -34 93 -44 338 -4 93 -10 174 -13 180 -3 5 -7 90 -9 190 -4 235 -7
268 -32 344 -23 71 -26 103 -11 131 7 14 6 31 -3 59 -8 23 -11 45 -6 53 5 7 9
35 9 61 0 31 6 54 16 64 13 13 15 37 13 127 -4 165 19 543 36 596 50 156 57
227 69 735 3 121 10 242 15 268 5 30 5 64 -1 90 -6 25 -7 94 -2 172 8 143 8
162 4 315 -2 101 -17 228 -40 355 -14 73 -5 530 11 572 11 30 7 81 -17 222 -8
46 -14 128 -14 181 0 76 -4 108 -20 141 -24 54 -25 103 -4 188 30 120 68 147
219 155 44 2 88 8 98 11 17 7 24 2 130 -91 20 -18 39 -24 72 -24 24 0 47 -4
50 -10 12 -19 105 -11 136 11 28 20 41 21 290 19 143 0 269 -5 282 -9 13 -5
29 -4 38 2 13 8 24 6 44 -7 30 -20 161 -31 171 -15 7 12 91 11 99 -1 3 -5 24
-10 45 -10 37 0 63 7 119 34 30 14 158 11 177 -5 9 -8 29 -9 61 -3 27 4 55 7
63 6 8 -1 71 -6 140 -11 101 -7 132 -5 163 7 31 12 45 12 81 2 38 -10 134 -10
361 1 11 0 33 -3 48 -6 17 -5 49 -1 83 10 50 16 56 16 79 1 26 -17 51 -21 57
-8 2 4 17 18 35 30 39 28 94 29 117 3 21 -23 113 -30 451 -34 121 -2 227 -7
235 -12 8 -6 56 -13 105 -17 50 -4 104 -10 122 -14 24 -5 40 -1 63 16 30 21
35 22 84 10 30 -7 69 -9 91 -5 22 3 72 9 110 12 39 3 74 9 79 14 15 14 64 11
116 -8 48 -17 49 -17 102 8 50 25 60 26 178 22 183 -6 216 -6 307 2 62 6 87 4
98 -5 23 -19 78 -14 127 10 34 17 62 21 130 21 48 0 90 4 93 10 4 5 13 6 23 0
9 -5 41 -9 70 -10 28 -1 58 -2 65 -3 6 0 75 5 152 11 136 12 386 9 533 -5 47
-4 81 -3 95 4 39 19 210 30 280 17 25 -5 42 -3 53 5 9 9 46 13 104 12 50 0 90
4 90 9 0 5 20 9 44 9 25 0 48 5 51 10 3 6 40 10 81 10 41 0 83 -4 94 -10 11
-5 29 -14 40 -20 11 -5 40 -10 64 -10 25 0 48 5 51 10 3 6 18 10 33 11 15 0
41 9 57 19 40 25 71 24 108 -2z m-8083 -1258 c0 -38 -1 -39 -20 -28 -23 14
-26 38 -8 56 21 21 28 13 28 -28z m8540 -7155 c0 -12 -28 -35 -44 -35 -14 0
-5 30 12 39 24 14 32 13 32 -4z"/>
<path d="M3640 9270 c-19 -10 -50 -24 -67 -32 -18 -7 -33 -16 -33 -20 0 -5 -6
-8 -12 -8 -27 -1 -47 -49 -58 -136 -14 -110 -6 -179 23 -199 22 -15 114 -12
148 6 16 8 62 -5 116 -34 36 -19 100 -22 156 -6 27 7 48 7 68 0 22 -8 39 -6
72 6 23 9 76 20 117 24 122 13 163 21 185 34 22 14 312 27 320 15 5 -8 62 -18
150 -27 28 -3 133 -5 235 -4 175 0 250 -9 250 -30 0 -5 7 -9 15 -9 8 0 15 -4
15 -10 0 -5 5 -10 10 -10 6 0 20 -9 31 -19 12 -11 36 -22 55 -25 56 -11 60
-36 20 -109 -19 -34 -43 -97 -54 -140 -11 -43 -31 -93 -43 -112 -25 -36 -37
-39 -209 -51 -41 -2 -84 -8 -95 -13 -33 -14 -113 -31 -145 -31 -16 0 -32 -4
-35 -10 -3 -5 -22 -10 -40 -10 -45 0 -176 -20 -195 -30 -9 -4 -87 -8 -173 -9
-87 0 -163 -3 -169 -7 -25 -16 -214 -53 -268 -54 -19 0 -49 -9 -66 -19 -17
-11 -58 -21 -90 -24 -33 -3 -81 -11 -109 -17 -27 -7 -81 -14 -119 -17 -41 -3
-82 -12 -103 -24 -18 -10 -42 -19 -53 -19 -19 0 -100 -71 -100 -89 0 -16 -29
-20 -44 -6 -17 17 -95 20 -159 6 -23 -5 -73 -15 -112 -21 -38 -7 -82 -21 -97
-31 -14 -11 -30 -19 -35 -19 -5 0 -18 -8 -29 -17 -11 -10 -29 -23 -40 -29 -12
-7 -20 -24 -22 -49 -5 -52 3 -78 34 -114 23 -28 31 -31 83 -31 44 0 62 5 79
20 12 12 22 25 22 30 0 6 8 10 18 10 9 0 28 9 42 20 19 14 41 20 86 20 59 0
63 -2 98 -40 20 -22 36 -45 36 -50 0 -6 9 -10 20 -10 11 0 20 4 20 9 0 20 32
41 55 35 12 -3 26 -1 29 5 4 6 25 11 47 11 25 0 47 7 60 18 24 24 94 45 118
37 10 -3 38 -1 62 4 36 8 46 7 67 -10 31 -24 42 -24 91 2 50 26 195 60 281 66
36 2 83 13 106 24 22 10 47 19 55 19 8 0 19 4 25 9 5 5 44 14 87 20 54 8 84
17 100 32 23 21 38 21 112 -2 63 -19 156 -15 220 10 58 23 103 29 232 29 121
0 151 4 204 23 54 20 67 21 105 11 73 -20 129 -15 187 15 65 34 116 53 143 53
24 0 83 69 102 120 7 19 15 82 17 140 2 58 8 136 14 174 5 38 8 73 6 76 -3 4
7 63 21 131 18 84 26 160 27 234 2 97 -1 115 -21 152 -32 61 -66 75 -165 70
-45 -3 -113 -10 -152 -17 -38 -6 -106 -15 -150 -21 -44 -5 -102 -12 -129 -15
-28 -4 -57 -2 -70 5 -12 6 -100 12 -211 14 -104 2 -215 9 -245 16 -40 8 -95 9
-205 1 -102 -6 -179 -6 -240 1 -49 6 -110 13 -135 15 -25 3 -64 14 -87 25 -24
10 -53 19 -66 19 -13 0 -27 4 -32 9 -11 10 -99 19 -270 26 -94 3 -115 1 -145
-15z"/>
<path d="M8225 9241 c-6 -5 -46 -11 -90 -14 -44 -2 -98 -10 -120 -18 -44 -15
-197 -20 -641 -20 -163 -1 -290 3 -300 9 -37 19 -90 21 -174 8 -46 -8 -86 -18
-87 -22 -12 -36 -45 -72 -69 -77 -33 -6 -92 -60 -105 -95 -13 -33 -11 -140 3
-178 8 -24 8 -47 -1 -95 -18 -95 -33 -237 -32 -297 3 -96 47 -163 121 -181 25
-7 54 -16 65 -20 94 -41 118 -57 147 -102 15 -24 24 -27 100 -31 70 -5 88 -3
115 14 28 17 37 18 70 7 21 -7 88 -15 148 -19 61 -4 128 -13 150 -20 38 -12
75 -16 320 -40 55 -5 116 -12 136 -16 23 -3 39 -2 43 5 8 13 82 15 90 2 3 -4
54 -11 113 -15 155 -10 232 -20 283 -39 25 -9 53 -17 63 -17 11 0 32 -13 47
-30 15 -16 34 -30 42 -30 24 0 106 -57 113 -79 6 -18 14 -21 70 -21 47 0 74
-5 97 -20 18 -11 47 -20 65 -20 46 0 114 -33 142 -69 20 -26 30 -31 68 -31 45
0 116 -38 145 -78 7 -10 29 -29 48 -42 19 -14 44 -32 54 -42 11 -10 32 -18 46
-18 15 0 44 -12 65 -26 39 -26 109 -55 182 -74 32 -8 54 -24 90 -65 36 -41 55
-55 75 -55 15 0 30 -4 33 -10 3 -5 10 -10 16 -10 14 0 11 51 -5 69 -23 27 -46
112 -46 171 0 44 -5 64 -22 86 -33 43 -45 54 -59 54 -6 0 -19 8 -28 18 -9 9
-28 23 -43 31 -16 8 -28 18 -28 23 0 4 -9 8 -20 8 -11 0 -46 26 -78 58 -31 31
-70 64 -87 72 -16 8 -46 31 -66 51 -20 20 -45 40 -57 43 -12 4 -37 23 -56 42
-18 18 -42 34 -52 34 -11 0 -30 9 -44 20 -14 11 -34 20 -46 20 -11 0 -41 14
-67 30 -26 17 -54 30 -62 30 -9 0 -34 8 -58 19 -80 35 -98 41 -121 41 -12 0
-41 9 -64 20 -22 11 -53 20 -67 20 -22 0 -85 23 -137 51 -10 5 -35 9 -55 9
-37 0 -106 19 -119 33 -4 4 -18 7 -31 7 -12 0 -46 9 -75 20 -29 11 -67 20 -85
20 -17 0 -71 14 -120 30 -48 17 -97 30 -109 30 -11 0 -43 11 -70 25 -41 22
-58 25 -101 20 -31 -4 -54 -2 -58 4 -3 6 -17 11 -30 11 -13 0 -26 4 -29 9 -11
18 -77 24 -290 27 -120 1 -222 6 -225 11 -3 4 -14 14 -23 22 -23 17 -48 -1
-41 -29 5 -18 0 -20 -48 -20 -50 0 -55 3 -76 35 -36 55 -39 104 -11 156 46 83
61 104 86 123 32 24 117 32 167 16 33 -11 42 -10 81 11 43 21 48 22 112 9 37
-7 81 -20 99 -28 29 -14 36 -14 70 1 48 20 149 30 188 19 17 -5 39 -6 50 -2
11 3 83 3 160 -1 84 -4 160 -3 190 3 97 19 393 25 425 8 11 -6 60 -11 108 -11
48 0 104 -5 125 -11 26 -8 44 -8 60 -1 12 6 38 16 57 23 19 7 45 17 58 23 17
8 28 8 42 -1 11 -7 49 -12 85 -12 36 0 73 -4 83 -8 9 -5 27 -14 39 -20 13 -7
31 -12 41 -12 22 0 52 49 52 85 0 38 -55 119 -103 151 -22 15 -51 39 -64 54
-23 27 -27 28 -111 27 -74 -1 -93 2 -118 19 -23 16 -46 21 -108 22 -44 1 -84
6 -90 12 -5 5 -20 10 -33 10 -13 0 -23 3 -23 8 0 8 -41 27 -85 37 -37 9 -115
9 -173 0 -28 -5 -48 -3 -55 4 -14 14 -239 15 -252 2z"/>
<path d="M6734 7776 c-13 -14 -21 -101 -29 -296 -3 -69 -8 -173 -11 -231 -5
-76 -3 -112 6 -129 9 -16 14 -94 16 -249 2 -146 9 -254 18 -306 9 -44 16 -102
16 -130 1 -56 10 -104 36 -185 18 -56 19 -86 27 -460 2 -102 9 -197 15 -211 8
-21 7 -33 -5 -55 -19 -33 -20 -130 -4 -191 6 -22 10 -82 10 -134 -2 -96 12
-191 37 -265 14 -42 37 -387 33 -500 -1 -17 8 -49 20 -72 12 -23 21 -51 21
-62 0 -11 9 -38 20 -59 10 -21 29 -67 41 -102 12 -35 27 -77 34 -94 8 -16 21
-57 30 -90 9 -33 26 -77 37 -98 33 -65 58 -156 56 -205 -1 -50 13 -94 50 -152
12 -19 27 -52 32 -72 7 -23 22 -45 43 -59 17 -13 39 -31 47 -42 8 -11 27 -33
41 -51 15 -17 36 -50 48 -73 20 -40 76 -93 98 -93 6 0 29 -18 52 -40 34 -33
41 -47 41 -78 0 -46 21 -73 70 -91 56 -21 84 -35 103 -52 30 -27 114 -59 155
-59 11 0 24 -4 27 -10 8 -13 162 -13 170 1 4 5 -1 26 -10 45 -13 27 -14 42 -7
62 18 47 21 135 6 167 -29 63 -91 115 -162 137 -37 12 -85 33 -107 49 -52 36
-125 112 -125 131 0 8 -13 39 -29 69 -21 39 -31 75 -36 129 -4 41 -12 84 -18
95 -6 11 -28 85 -48 165 -21 80 -46 170 -54 200 -11 36 -16 89 -15 152 0 69
-4 106 -14 127 -15 29 -26 57 -72 186 -87 245 -106 327 -98 435 6 74 4 91 -13
125 -13 25 -22 71 -26 122 -4 46 -13 95 -21 110 -14 28 -32 134 -27 165 1 9
-4 30 -13 45 -11 22 -17 104 -25 343 -6 173 -14 338 -17 365 -4 35 -1 63 11
93 12 29 15 55 11 84 -19 129 -24 200 -19 266 4 47 1 87 -7 111 -10 33 -10 51
4 114 9 41 23 82 30 92 17 24 75 42 106 34 14 -4 39 -7 56 -8 16 -1 49 -10 72
-21 22 -11 47 -20 54 -20 7 0 47 -13 88 -29 107 -40 143 -51 173 -51 14 0 29
-4 32 -10 3 -5 16 -10 29 -10 12 0 47 -12 77 -27 49 -25 142 -56 209 -69 25
-6 60 -19 92 -35 10 -5 27 -9 38 -9 10 0 35 -9 55 -20 20 -11 49 -20 65 -20
17 0 52 -9 78 -21 98 -43 137 -64 152 -79 8 -8 29 -22 45 -30 17 -8 42 -22 57
-32 14 -10 35 -18 45 -18 46 0 183 -109 264 -210 20 -25 51 -61 68 -80 17 -19
31 -38 31 -42 0 -4 10 -17 23 -30 12 -13 37 -48 55 -78 28 -45 33 -61 28 -92
-6 -35 -4 -39 20 -48 32 -12 82 -57 95 -85 5 -11 25 -42 44 -70 20 -27 41 -58
48 -67 17 -27 31 -22 71 23 70 80 99 244 62 350 -9 24 -16 59 -16 77 0 31 -19
70 -47 100 -7 7 -15 29 -19 50 -8 45 -19 68 -50 101 -13 14 -24 31 -24 37 0
18 -56 121 -101 185 -58 81 -173 199 -195 199 -3 0 -24 18 -45 39 -38 37 -76
58 -294 162 -49 23 -99 53 -111 66 -22 26 -68 53 -89 53 -7 0 -33 10 -57 21
-61 31 -120 52 -173 64 -16 4 -48 15 -72 26 -23 10 -51 19 -62 19 -18 0 -53
11 -126 40 -11 4 -49 21 -85 38 -36 17 -81 33 -100 36 -112 16 -133 24 -190
67 -20 16 -60 32 -95 39 -33 7 -87 25 -120 40 -33 15 -93 38 -133 51 -40 12
-75 26 -78 31 -3 4 -22 8 -43 8 -21 0 -49 8 -62 18 -13 10 -58 29 -99 42 -42
14 -86 36 -100 50 -14 14 -36 30 -50 36 -73 34 -176 44 -196 20z m1171 -4648
c-12 -40 -53 -60 -62 -31 -5 14 36 53 55 53 9 0 11 -7 7 -22z"/>
<path d="M5437 7644 c-4 -4 -43 -8 -87 -10 -57 -1 -83 -6 -95 -18 -21 -21 -59
-30 -88 -22 -12 4 -76 9 -143 12 -106 4 -126 3 -168 -16 -28 -12 -69 -20 -101
-20 -30 0 -64 -4 -77 -9 -13 -5 -41 -14 -63 -19 -22 -6 -67 -18 -100 -27 -33
-10 -75 -20 -92 -22 -18 -3 -33 -9 -33 -14 0 -5 -11 -9 -25 -9 -14 0 -25 -4
-25 -8 0 -4 -21 -14 -47 -21 -72 -21 -134 -50 -152 -69 -9 -10 -32 -24 -51
-32 -19 -7 -39 -17 -45 -22 -5 -4 -15 -8 -23 -8 -7 0 -33 -13 -57 -30 -24 -16
-50 -30 -57 -30 -25 0 -83 -25 -118 -50 -36 -26 -54 -38 -103 -68 -15 -9 -44
-32 -64 -49 -19 -18 -39 -33 -44 -33 -10 0 -39 -23 -83 -65 -32 -32 -102 -81
-146 -103 -14 -7 -38 -31 -53 -53 -16 -21 -35 -39 -43 -39 -16 0 -49 -17 -77
-39 -13 -11 -16 -23 -12 -42 4 -17 0 -40 -9 -58 -24 -45 -21 -133 5 -162 14
-17 22 -20 25 -11 3 6 11 12 17 12 27 1 48 30 57 81 7 38 20 63 42 86 33 34
55 40 86 24 69 -36 188 -40 251 -8 19 9 44 17 56 17 24 0 45 18 45 38 0 35 77
86 168 111 23 7 42 15 42 20 0 4 18 13 41 20 22 7 57 22 77 33 97 56 152 78
194 78 15 0 43 9 63 20 20 11 45 20 55 20 11 0 28 4 38 10 52 29 194 90 210
90 27 0 184 38 204 50 10 6 28 10 41 10 13 0 29 6 36 13 17 17 193 16 215 -2
15 -13 29 -12 144 5 27 4 48 2 55 -5 6 -6 17 -11 24 -11 18 0 81 -58 88 -82 4
-10 19 -25 35 -33 15 -8 34 -21 42 -28 8 -8 29 -22 46 -31 18 -9 37 -29 43
-44 10 -27 7 -140 -6 -198 -5 -23 -1 -43 15 -74 25 -49 23 -91 -7 -136 -13
-21 -18 -50 -20 -118 -4 -232 -43 -449 -105 -588 -23 -51 -20 -79 18 -214 8
-28 14 -76 14 -107 0 -47 -4 -58 -24 -75 -23 -17 -24 -22 -14 -63 15 -69 -2
-201 -35 -268 -9 -18 -21 -60 -27 -92 -6 -32 -17 -78 -25 -100 -8 -23 -15 -61
-15 -85 0 -25 -8 -57 -19 -75 -15 -25 -17 -37 -9 -60 7 -21 5 -43 -10 -91 -11
-35 -31 -103 -45 -153 -14 -49 -34 -115 -45 -145 -10 -30 -29 -89 -41 -130
-27 -89 -34 -107 -61 -140 -11 -14 -21 -41 -23 -60 -5 -41 -38 -110 -79 -162
-30 -39 -98 -184 -98 -211 0 -9 -6 -22 -14 -30 -8 -8 -30 -45 -50 -83 -19 -38
-62 -103 -95 -144 -34 -41 -61 -79 -61 -84 0 -5 -12 -33 -27 -62 -19 -38 -37
-58 -61 -70 -37 -17 -99 -78 -108 -106 -3 -10 -9 -18 -13 -18 -5 0 -14 -13
-21 -30 -7 -16 -16 -30 -20 -30 -3 0 -13 -12 -21 -27 -16 -32 -34 -53 -45 -53
-4 0 -17 -12 -29 -26 -12 -14 -33 -31 -45 -37 -14 -7 -27 -26 -32 -44 -5 -19
-15 -33 -23 -33 -28 0 -15 -27 25 -49 71 -41 60 -40 200 -16 53 9 119 45 166
90 98 94 146 135 157 135 7 0 19 9 27 20 8 11 23 20 32 20 54 0 124 78 160
176 7 20 32 56 55 80 24 24 43 52 43 63 0 10 6 23 13 29 6 6 27 41 46 79 74
150 105 210 130 242 25 34 70 150 71 184 0 10 10 39 23 65 13 26 29 65 35 87
33 114 42 151 42 174 0 46 20 98 49 132 17 18 35 54 42 79 7 25 21 56 31 69
10 13 18 38 18 56 0 18 9 52 20 76 12 27 20 66 20 102 0 32 7 74 15 94 8 19
15 52 15 72 0 20 9 53 20 74 11 20 20 46 20 56 0 11 11 28 25 39 29 23 30 30
10 68 -19 37 -19 72 1 120 16 36 15 45 -1 130 -14 70 -15 95 -6 111 6 12 11
42 11 68 0 51 18 93 61 142 32 37 45 88 34 136 -15 62 -10 180 9 237 20 59 25
123 14 180 -19 94 -20 195 -4 234 9 21 16 59 16 85 0 25 9 78 19 116 10 39 16
76 14 82 -3 7 5 28 16 47 13 20 21 50 21 76 0 23 9 73 21 111 19 61 20 77 10
132 -6 34 -10 107 -9 162 1 55 -1 125 -4 157 -7 61 -59 191 -89 222 -16 18
-22 18 -58 6 -40 -13 -64 -11 -136 10 -80 24 -275 47 -288 34z"/>
<path d="M8425 2837 c-31 -19 -36 -29 -29 -67 4 -19 6 -44 6 -54 -1 -29 15
-54 48 -71 35 -18 60 -19 94 -4 33 15 39 34 21 69 -8 16 -15 37 -15 47 0 10
-14 35 -31 56 -32 39 -58 45 -94 24z"/>
</g>
</svg>
